<svg xmlns="http://www.w3.org/2000/svg" version="1.0" preserveAspectRatio="xMidYMid meet" viewBox="142.09 177.39 747.92 684.61">

<g transform="translate(0.000000,1024.000000) scale(0.100000,-0.100000)" fill="#000000" stroke="none">
<path d="M3604 8431 c-77 -49 -181 -161 -210 -226 -47 -102 -51 -209 -9 -254 12 -14 13 -20 3 -24 -7 -2 -52 -34 -100 -71 -49 -36 -88 -64 -88 -62 0 2 11 23 24 47 44 81 60 148 61 249 0 93 -16 170 -36 170 -6 0 -47 -37 -92 -82 -121 -122 -179 -242 -178 -370 0 -69 15 -123 40 -140 15 -12 7 -22 -79 -105 l-96 -91 29 86 c46 137 38 326 -18 397 -15 19 -17 18 -66 -35 -66 -72 -130 -170 -164 -250 -40 -95 -47 -234 -15 -308 23 -54 51 -79 73 -65 6 4 3 -5 -8 -19 -11 -14 -55 -72 -99 -129 -43 -57 -82 -108 -86 -113 -5 -5 2 25 15 67 34 105 41 213 21 307 -15 72 -71 200 -87 200 -15 0 -85 -89 -126 -161 -111 -196 -126 -458 -33 -571 32 -39 57 -47 78 -26 20 20 14 0 -14 -43 -14 -23 -55 -98 -90 -168 -57 -111 -64 -121 -58 -81 11 76 6 232 -11 295 -22 81 -67 171 -116 228 -49 57 -53 55 -99 -44 -101 -219 -117 -478 -40 -629 28 -55 74 -105 110 -120 27 -11 32 -11 45 6 21 27 19 18 -19 -97 -18 -57 -44 -147 -57 -199 l-24 -95 -7 100 c-12 191 -94 362 -221 465 -34 28 -65 50 -70 50 -4 0 -12 -12 -18 -27 -47 -125 -58 -389 -21 -525 37 -138 110 -246 194 -289 51 -26 72 -24 87 7 6 15 14 25 16 23 2 -3 -3 -47 -11 -99 -7 -52 -14 -116 -14 -141 0 -25 -3 -74 -7 -109 l-6 -63 -14 54 c-34 137 -156 325 -259 401 -60 44 -151 90 -157 80 -13 -21 -17 -180 -8 -271 30 -284 190 -534 362 -566 38 -7 69 11 69 41 0 8 5 12 10 9 5 -3 10 -32 10 -63 0 -48 26 -238 46 -332 3 -14 -12 7 -33 45 -58 106 -94 154 -171 227 -76 72 -165 126 -257 158 -88 30 -89 30 -81 -42 34 -303 164 -553 351 -673 58 -37 112 -55 171 -55 47 0 64 14 64 53 0 46 15 23 40 -60 19 -63 61 -173 117 -302 3 -7 -32 24 -79 70 -95 95 -211 168 -322 206 -69 24 -229 48 -246 38 -4 -3 -2 -24 5 -47 89 -294 321 -547 561 -614 110 -30 213 5 200 67 -3 16 -4 29 -1 29 2 0 28 -42 58 -92 30 -51 87 -137 126 -191 l71 -98 -61 42 c-83 56 -212 115 -295 135 -123 29 -374 16 -374 -19 0 -18 67 -114 129 -185 208 -239 558 -380 727 -294 59 30 68 45 55 84 -6 17 -8 28 -4 25 53 -54 249 -235 285 -264 26 -20 46 -38 45 -39 -1 -1 -40 11 -87 26 -105 35 -242 54 -336 45 -83 -8 -210 -49 -274 -90 l-44 -28 49 -44 c27 -25 96 -76 153 -114 166 -109 324 -160 497 -160 108 0 191 20 251 62 54 37 68 65 48 97 -8 12 -13 22 -10 22 2 0 51 -29 108 -64 57 -35 145 -85 196 -111 50 -27 91 -50 89 -51 -1 -1 -24 2 -52 6 -151 26 -312 2 -450 -65 -97 -47 -209 -129 -203 -148 11 -32 276 -146 400 -171 95 -20 271 -20 358 -2 95 20 173 58 224 110 50 50 65 89 47 119 -10 15 -10 18 1 14 24 -10 322 -105 373 -120 l50 -13 -80 -8 c-165 -15 -319 -76 -452 -180 -75 -59 -148 -147 -140 -169 3 -8 38 -23 79 -35 265 -79 537 -66 748 35 120 58 236 210 201 265 -11 17 -10 19 6 15 10 -3 62 -15 116 -27 53 -12 97 -23 97 -25 0 -2 -39 -29 -87 -61 -90 -60 -232 -195 -258 -244 l-15 -29 64 -45 c35 -26 66 -46 68 -46 3 0 19 28 36 63 51 102 139 195 266 280 68 45 70 46 100 30 120 -61 256 -194 308 -302 18 -38 38 -70 43 -70 17 -1 125 90 125 105 0 28 -181 202 -272 263 l-89 59 88 20 c49 11 106 24 128 28 39 7 40 6 23 -13 -26 -29 -22 -63 12 -115 69 -105 212 -185 395 -223 86 -17 274 -20 361 -4 100 17 246 62 251 76 7 19 -56 98 -127 159 -127 108 -293 176 -462 190 l-81 7 129 38 c118 34 241 75 287 94 17 7 18 6 7 -12 -30 -48 34 -135 135 -183 90 -43 174 -60 302 -60 174 0 296 31 491 126 113 55 114 55 95 76 -59 66 -215 154 -328 183 -78 20 -235 29 -307 17 -32 -5 -58 -8 -58 -7 0 2 60 35 133 75 72 40 158 90 189 111 56 38 84 51 60 27 -40 -40 36 -124 138 -152 141 -40 343 -15 514 63 112 51 336 212 336 241 0 14 -140 78 -210 96 -128 33 -336 17 -473 -37 -26 -11 -50 -19 -53 -19 -2 0 28 28 68 62 40 35 115 103 167 153 58 56 91 82 87 68 -10 -33 8 -58 61 -85 73 -35 198 -32 315 9 143 50 229 105 349 223 100 98 204 234 193 251 -9 16 -122 32 -214 31 -149 -1 -328 -58 -449 -145 -75 -54 -77 -53 -27 12 55 72 195 288 197 305 1 6 4 -2 8 -18 11 -50 52 -71 135 -70 65 0 83 5 161 42 178 86 308 218 410 417 38 74 75 174 75 201 0 4 -39 4 -87 1 -169 -11 -329 -87 -475 -226 -48 -46 -88 -81 -88 -79 0 2 15 39 33 83 19 44 51 132 73 195 30 90 39 108 42 85 4 -39 26 -55 79 -55 93 0 215 74 305 185 112 138 208 395 208 556 0 55 6 54 -96 24 -148 -44 -344 -227 -425 -398 l-20 -42 6 45 c3 25 13 88 21 140 7 52 14 118 15 145 0 28 4 59 8 70 7 18 8 17 14 -7 9 -36 31 -41 93 -23 102 30 190 121 263 276 47 98 67 169 82 294 11 89 5 243 -10 258 -14 14 -130 -54 -200 -119 -107 -99 -183 -223 -222 -359 l-16 -60 -8 120 c-3 66 -12 160 -19 209 -10 73 -10 85 1 70 7 -10 13 -22 13 -27 0 -17 67 1 109 29 118 78 195 270 195 484 -1 144 -40 340 -69 340 -7 0 -35 -18 -61 -41 -143 -123 -217 -279 -231 -484 l-7 -90 -26 105 c-23 91 -69 244 -87 290 -5 12 -2 12 13 -2 16 -14 23 -15 49 -4 33 14 86 70 110 116 50 97 60 300 21 452 -24 96 -99 268 -116 268 -16 0 -84 -88 -117 -153 -49 -94 -66 -187 -61 -325 3 -65 8 -126 12 -137 4 -11 -24 43 -62 120 -39 77 -83 160 -98 185 -15 25 -21 39 -13 33 22 -21 46 -15 75 20 105 124 89 373 -37 592 -51 88 -103 150 -118 141 -17 -11 -57 -95 -76 -161 -26 -87 -17 -266 17 -357 14 -38 24 -68 22 -68 -2 0 -22 27 -45 61 -22 33 -70 96 -105 140 -35 43 -58 76 -50 73 22 -9 61 39 76 91 19 70 8 206 -23 283 -32 77 -99 179 -166 251 -59 64 -68 61 -97 -27 -37 -110 -20 -281 39 -397 18 -36 8 -29 -85 60 -98 94 -104 101 -87 115 45 38 54 161 19 272 -27 88 -108 207 -182 269 -32 27 -63 49 -67 49 -16 0 -35 -96 -35 -170 1 -90 30 -194 74 -263 34 -55 37 -56 -87 37 l-92 68 17 26 c12 18 17 47 17 97 0 62 -5 81 -38 149 -24 48 -60 99 -95 135 -60 61 -169 137 -180 126 -4 -3 -8 -40 -10 -80 -6 -110 30 -214 115 -335 18 -24 18 -24 -32 5 -27 16 -62 36 -77 44 -20 12 -29 27 -34 56 -15 94 -68 163 -173 225 -75 44 -152 67 -238 71 -69 3 -70 -1 -20 -94 73 -139 233 -250 360 -250 55 0 68 -5 122 -40 33 -21 52 -37 43 -34 -42 14 -138 18 -193 8 -71 -13 -170 -60 -170 -81 0 -21 98 -84 169 -109 90 -31 171 -37 241 -17 69 21 101 40 119 73 l12 24 112 -86 c62 -47 112 -88 112 -90 0 -1 -21 5 -47 15 -69 26 -169 34 -239 20 -58 -12 -164 -58 -164 -71 0 -12 92 -75 159 -109 79 -39 190 -64 251 -55 66 10 128 40 142 69 6 14 16 26 21 26 10 0 229 -211 224 -216 -1 -2 -25 8 -53 22 -28 14 -87 32 -131 41 -70 15 -92 16 -153 5 -74 -13 -141 -39 -147 -58 -6 -17 132 -128 202 -164 125 -63 255 -78 335 -37 25 12 50 32 56 44 10 20 19 11 121 -125 136 -181 139 -187 78 -135 -105 87 -262 141 -375 128 -73 -8 -130 -24 -130 -35 0 -16 94 -123 161 -184 149 -135 363 -183 446 -100 13 13 28 22 33 19 9 -6 173 -314 186 -350 4 -11 -8 -1 -27 23 -76 93 -189 166 -306 196 -66 17 -198 22 -207 7 -10 -15 31 -98 86 -178 66 -95 159 -180 251 -229 66 -35 79 -39 150 -39 74 0 80 2 102 28 l24 27 40 -127 c45 -143 84 -293 78 -299 -2 -2 -14 15 -27 39 -90 164 -272 297 -431 314 l-62 6 6 -40 c31 -190 180 -418 327 -497 62 -34 178 -48 205 -26 9 7 17 11 20 9 8 -9 35 -304 35 -383 l-1 -81 -25 75 c-38 113 -79 177 -168 265 -84 83 -178 140 -252 152 l-36 6 7 -79 c19 -217 95 -396 219 -516 69 -66 127 -93 198 -93 l57 0 -4 -35 c-3 -19 -12 -92 -20 -162 -14 -115 -41 -267 -49 -275 -2 -2 -6 31 -9 72 -8 88 -45 206 -90 284 -44 79 -155 190 -226 229 l-60 33 -8 -38 c-4 -21 -8 -105 -8 -188 1 -124 5 -164 23 -228 57 -199 172 -339 294 -357 l37 -5 -33 -100 c-35 -102 -131 -333 -146 -349 -5 -4 -4 11 2 35 13 59 3 272 -16 332 -37 117 -155 294 -217 327 -16 9 -21 5 -38 -29 -56 -109 -88 -321 -71 -472 20 -183 80 -299 180 -352 30 -16 54 -34 52 -39 -6 -21 -131 -205 -202 -296 -71 -93 -96 -113 -65 -52 55 106 71 314 35 454 -28 112 -114 267 -138 252 -22 -13 -123 -176 -149 -238 -99 -244 -75 -551 53 -656 l36 -30 -63 -62 c-72 -70 -283 -250 -293 -250 -4 0 4 15 18 33 35 46 93 171 111 242 25 95 29 219 12 302 -22 100 -57 193 -73 193 -23 0 -157 -142 -211 -222 -97 -146 -151 -325 -140 -464 7 -82 38 -173 67 -199 11 -10 17 -21 14 -26 -13 -21 -385 -229 -410 -229 -3 0 23 31 58 69 109 118 189 299 204 466 6 62 -8 204 -22 226 -7 12 -74 -23 -154 -80 -146 -103 -274 -260 -334 -410 -27 -69 -30 -87 -31 -191 0 -91 4 -122 18 -149 9 -19 17 -35 17 -37 0 -5 -216 -73 -344 -109 -124 -35 -163 -40 -114 -14 107 56 248 213 311 348 37 78 77 230 77 294 0 32 -4 32 -135 -10 -174 -55 -325 -151 -455 -290 -119 -126 -180 -265 -166 -379 l6 -52 -68 -12 c-37 -6 -110 -22 -162 -35 l-95 -24 -91 23 c-51 13 -123 29 -160 36 l-69 12 0 92 c0 83 -3 97 -35 166 -73 155 -207 286 -412 399 -55 30 -199 82 -265 96 -32 6 -33 6 -33 -27 1 -65 41 -214 79 -293 65 -135 162 -248 286 -331 27 -19 46 -34 41 -34 -23 0 -414 119 -447 136 l-27 13 20 40 c46 93 33 220 -38 370 -72 152 -167 267 -309 372 -67 49 -151 96 -159 89 -2 -3 -10 -43 -16 -90 -31 -225 50 -458 223 -637 23 -24 37 -43 33 -43 -14 0 -232 118 -329 178 -82 50 -87 55 -69 68 33 23 64 111 70 200 9 149 -33 297 -128 451 -51 83 -195 243 -218 243 -16 0 -46 -66 -69 -151 -22 -85 -22 -253 1 -339 18 -70 73 -193 107 -241 12 -17 19 -32 17 -34 -5 -5 -152 118 -266 222 l-93 86 35 23 c108 74 158 325 106 530 -34 129 -165 381 -194 371 -22 -7 -86 -111 -118 -191 -32 -79 -32 -85 -32 -231 0 -156 0 -157 60 -320 13 -35 -115 131 -202 262 l-85 127 48 22 c159 70 242 359 184 639 -18 88 -69 235 -82 235 -16 0 -130 -133 -167 -195 -71 -120 -103 -291 -82 -430 6 -42 10 -79 7 -81 -11 -12 -177 408 -177 447 0 5 12 9 28 9 41 1 102 32 146 76 134 134 199 356 177 607 -5 60 -12 111 -15 115 -21 20 -184 -102 -244 -182 -80 -110 -114 -194 -135 -341 l-13 -90 -17 90 c-14 75 -27 171 -50 367 -3 26 -3 27 43 21 162 -19 367 229 415 502 20 116 20 185 0 185 -31 0 -138 -50 -199 -94 -112 -80 -194 -189 -239 -320 l-28 -81 5 130 c6 151 25 326 37 340 6 5 9 5 9 -2 0 -6 16 -17 35 -23 69 -23 185 24 282 113 109 101 188 250 228 431 l6 29 -53 -6 c-103 -10 -230 -68 -310 -143 -56 -51 -121 -134 -142 -182 -11 -23 -21 -40 -23 -38 -12 12 112 426 127 426 6 0 10 -4 10 -10 0 -5 14 -17 32 -26 72 -37 227 10 344 105 61 49 147 159 200 255 46 84 42 89 -81 83 -154 -9 -275 -66 -386 -184 l-61 -66 85 169 c47 93 92 177 100 188 13 18 14 18 39 -7 109 -109 383 -8 556 205 28 36 52 70 52 76 0 15 -91 34 -168 34 -110 1 -227 -41 -328 -118 -47 -36 -48 -37 -29 -8 10 16 61 84 113 152 l95 123 21 -25 c69 -84 260 -72 420 24 75 45 172 133 163 147 -12 19 -109 51 -173 58 -71 8 -187 -14 -256 -48 -27 -13 -48 -21 -48 -17 0 11 206 210 218 210 6 0 14 -9 17 -20 9 -28 81 -66 139 -74 108 -13 282 44 379 124 46 39 42 46 -46 86 -56 26 -72 29 -162 28 -78 0 -111 -5 -152 -22 -29 -12 -53 -20 -53 -18 0 6 225 176 233 176 4 0 7 -6 7 -14 0 -24 59 -65 118 -82 103 -30 247 2 368 82 63 42 62 47 -19 87 -74 36 -169 51 -248 39 -35 -5 -65 -9 -66 -8 -1 1 23 17 55 36 48 28 68 34 124 36 99 4 196 52 284 144 47 47 100 132 110 174 l7 29 -80 -6 c-44 -3 -106 -16 -137 -27 -128 -48 -237 -152 -251 -238 -3 -20 -9 -43 -14 -51 -7 -15 -139 -100 -155 -101 -4 0 6 16 23 35 38 44 74 112 95 184 17 58 22 206 7 215 -5 3 -35 -12 -67 -33z"/>
<path d="M5539 7107 c-40 -26 -69 -79 -69 -123 0 -31 -2 -32 -67 -50 l-67 -18 -76 27 c-109 39 -151 35 -208 -16 -17 -16 -33 -20 -71 -18 -28 1 -58 -3 -70 -11 -30 -19 -26 -28 8 -18 16 4 47 4 68 0 33 -8 41 -6 64 15 18 18 36 25 65 25 44 0 80 -16 54 -23 -69 -21 -117 -44 -152 -74 -35 -29 -48 -34 -80 -31 -48 4 -49 -7 -3 -29 34 -16 38 -16 106 6 39 12 73 21 75 19 2 -3 -16 -26 -41 -51 -25 -26 -45 -50 -45 -52 0 -14 25 0 70 40 44 39 57 45 95 45 31 0 51 7 72 24 50 42 206 107 220 92 11 -10 -9 -23 -67 -41 -81 -26 -106 -41 -174 -104 -151 -141 -243 -185 -358 -174 -64 6 -65 5 -72 -21 -8 -34 11 -106 28 -106 7 0 34 12 60 26 25 14 46 23 46 19 0 -4 -16 -29 -35 -55 -34 -46 -35 -49 -21 -76 9 -16 18 -42 21 -58 4 -19 36 -58 91 -112 l85 -83 -40 -20 c-56 -29 -127 -27 -207 5 -35 14 -74 24 -87 22 -47 -7 -23 -94 34 -124 17 -8 58 -19 92 -23 l62 -8 -60 -2 c-42 -1 -72 5 -97 18 l-37 18 -12 -29 c-18 -43 0 -74 51 -88 43 -11 81 -8 169 17 51 14 55 13 65 -4 28 -46 26 -65 -10 -106 -40 -48 -58 -103 -48 -153 6 -34 5 -35 -14 -25 -11 6 -25 26 -31 44 -13 38 -1 83 40 151 l23 39 -35 -7 c-87 -16 -176 -18 -203 -4 -25 13 -36 12 -114 -9 -166 -44 -327 -121 -436 -208 -63 -51 -73 -55 -120 -55 -74 0 -209 -35 -280 -73 -33 -17 -89 -58 -123 -90 -123 -115 -147 -226 -98 -437 59 -249 18 -401 -119 -451 -20 -7 -36 -17 -36 -22 0 -16 94 0 133 23 46 27 48 14 5 -27 -44 -41 -72 -55 -138 -68 l-55 -12 46 -7 c82 -12 182 20 249 80 47 43 70 83 96 169 14 46 19 54 22 34 3 -23 -1 -44 -23 -129 l-7 -25 23 25 c12 14 35 53 52 88 28 61 29 67 24 170 -3 79 -11 125 -30 177 -23 65 -46 185 -34 185 3 0 33 -57 68 -127 60 -121 63 -132 64 -201 0 -60 2 -69 12 -55 39 52 29 168 -28 298 -35 82 -42 112 -43 165 -2 110 46 172 157 205 28 8 52 13 54 11 2 -2 -5 -30 -16 -62 -42 -128 -37 -237 20 -420 48 -156 30 -204 -117 -318 -40 -31 -74 -63 -78 -72 -3 -8 -15 -73 -25 -143 -25 -158 -59 -268 -100 -320 -27 -33 -31 -46 -26 -73 9 -46 -20 -74 -57 -57 -33 15 -60 0 -81 -43 -20 -41 -33 -153 -19 -162 23 -14 107 28 156 80 148 153 156 162 156 195 0 55 51 262 77 313 30 58 119 155 183 199 25 17 77 58 115 92 39 34 95 80 125 101 148 104 165 127 205 279 33 124 50 146 41 54 l-6 -67 62 26 c62 26 66 27 323 27 228 1 272 4 357 23 189 42 264 64 370 109 121 50 243 125 216 131 -9 2 -26 -2 -37 -7 -34 -19 -86 -13 -109 12 -22 23 -56 106 -48 115 3 2 18 -17 33 -43 15 -26 34 -54 41 -61 16 -16 60 -18 96 -4 14 5 66 16 115 24 65 10 119 28 193 61 112 52 134 51 132 -2 -2 -42 -29 -95 -76 -148 -22 -25 -43 -57 -47 -72 -5 -18 -16 -29 -37 -35 -24 -7 -32 -4 -47 17 -10 14 -25 25 -32 25 -40 0 -125 -121 -125 -178 0 -24 2 -25 59 -19 45 4 82 17 156 56 53 28 103 51 111 51 16 0 34 33 67 121 13 35 43 101 66 146 22 46 41 93 41 105 0 28 -33 103 -50 113 -6 4 -66 6 -133 4 -67 -1 -164 -1 -215 0 -61 2 -98 -1 -107 -9 -10 -8 -15 -9 -15 -2 0 26 46 32 254 32 118 0 222 -3 231 -6 9 -4 27 -29 41 -57 30 -58 27 -92 -13 -171 -14 -28 -46 -102 -69 -165 -24 -63 -49 -118 -56 -123 -7 -4 -26 -8 -41 -8 -18 0 -39 -11 -58 -30 -27 -26 -30 -35 -27 -81 4 -71 21 -80 88 -49 40 19 58 35 85 79 18 31 52 74 74 96 41 39 41 40 41 115 1 74 14 159 41 254 13 46 13 50 -12 94 -45 81 -61 87 -206 84 l-126 -4 9 34 c8 32 9 133 3 237 -3 51 27 126 75 186 l23 28 74 -27 c75 -28 371 -107 378 -100 2 2 3 16 3 31 0 17 10 37 25 51 17 15 23 28 18 40 -24 57 -105 276 -121 325 -10 31 -21 57 -26 57 -10 0 -70 -92 -104 -160 -48 -96 -24 -171 63 -196 38 -11 60 -25 78 -48 29 -39 32 -60 8 -52 -10 3 -56 15 -103 26 -47 12 -128 34 -180 50 -52 15 -108 31 -124 35 -85 19 -344 135 -426 190 -56 38 -69 38 -64 3 4 -26 -143 -320 -163 -326 -23 -7 -26 28 -5 51 24 26 132 231 132 251 0 16 -21 26 -56 26 -16 0 -28 -8 -36 -25 -12 -27 -14 -28 -70 -25 -66 3 -178 -60 -178 -100 0 -10 21 -60 47 -111 28 -58 48 -112 51 -141 2 -27 6 -48 8 -48 1 0 25 14 53 31 59 37 121 44 148 16 17 -16 15 -17 -30 -11 -41 6 -52 3 -89 -22 -22 -16 -61 -59 -85 -95 -42 -63 -96 -195 -86 -211 2 -5 16 -8 30 -8 21 0 24 -2 13 -15 -7 -8 -20 -15 -30 -15 -29 0 -38 -21 -50 -114 -15 -107 -9 -189 13 -214 25 -28 21 -42 -13 -42 -37 0 -66 42 -76 107 -6 38 9 184 22 218 7 16 -21 27 -52 19 -19 -5 -35 -27 -69 -98 -25 -51 -45 -97 -45 -103 0 -12 33 -23 73 -23 15 0 27 -5 27 -11 0 -10 -31 -7 -84 8 -14 4 -18 1 -13 -11 9 -23 -16 -20 -44 4 -22 18 -22 21 -8 33 22 16 102 177 89 177 -10 0 -26 -16 -54 -55 -14 -19 -15 -19 -27 8 -16 35 -3 91 46 194 39 83 111 193 126 193 6 0 9 -6 6 -12 -3 -7 -31 -68 -61 -136 -67 -147 -68 -157 -23 -147 17 4 51 10 75 14 42 6 43 7 75 81 18 42 48 102 67 135 27 48 34 69 33 111 -1 54 -33 129 -80 192 -20 26 -24 42 -21 80 l3 47 -59 0 -60 0 -38 50 c-52 68 -50 85 12 119 47 26 50 30 46 59 -12 72 -15 154 -8 182 6 22 12 -7 20 -114 7 -79 17 -152 22 -162 19 -35 51 -42 178 -43 137 0 153 7 155 65 l2 33 -104 17 c-57 9 -108 22 -114 28 -8 8 -8 41 1 121 11 93 10 115 -2 145 -8 19 -11 35 -7 35 21 0 32 -63 30 -169 -2 -84 0 -114 10 -120 7 -5 51 -16 98 -26 69 -15 98 -16 151 -8 l65 10 51 -46 c51 -45 219 -131 374 -192 42 -16 86 -34 97 -40 17 -8 28 -3 66 34 30 29 59 47 83 51 27 5 36 12 36 27 0 27 43 110 101 195 49 70 49 71 43 132 -5 46 -3 66 7 78 12 15 15 10 24 -47 9 -55 13 -64 30 -61 89 12 126 14 142 8 27 -11 1 -22 -69 -30 -88 -11 -89 -14 -30 -189 65 -197 79 -227 99 -227 9 0 47 10 85 22 53 17 67 26 63 38 -4 8 -19 62 -35 120 -16 58 -36 124 -44 148 -8 23 -14 42 -13 42 1 0 17 -4 35 -9 17 -5 32 -8 32 -5 0 2 -20 29 -44 58 -61 76 -63 85 -27 163 17 36 29 68 26 71 -2 3 -30 -19 -60 -48 -31 -29 -58 -50 -61 -48 -2 3 5 31 16 63 11 33 19 63 17 69 -2 5 -31 -16 -65 -47 -36 -33 -71 -57 -84 -57 -12 0 -46 14 -76 31 -44 25 -142 59 -168 59 -3 0 6 -14 21 -31 14 -17 24 -33 22 -35 -1 -2 -34 7 -73 20 -38 13 -89 27 -114 31 l-45 7 34 -35 33 -35 -68 24 c-41 15 -83 24 -108 22 l-41 -3 49 -25 c67 -35 72 -53 9 -33 -54 16 -134 12 -198 -11 -40 -14 -38 -18 15 -30 14 -3 34 -11 44 -19 17 -12 7 -14 -80 -10 -54 3 -110 0 -124 -5 -24 -9 -23 -10 18 -21 48 -13 47 -31 -1 -32 -18 0 -50 -6 -72 -13 l-40 -12 44 -7 c24 -4 40 -11 35 -16 -22 -19 -179 -72 -199 -67 -34 9 -53 107 -35 182 15 61 33 77 82 72 28 -3 34 2 59 42 22 36 26 53 22 84 l-6 39 41 -6 c46 -6 56 8 17 23 -14 5 -29 20 -34 32 -5 13 -15 38 -22 57 -30 81 -147 117 -220 68z m172 -38 c16 -17 29 -38 29 -47 0 -8 -10 0 -23 19 -13 19 -38 39 -57 46 -35 12 -35 12 -7 12 20 1 38 -9 58 -30z m33 -161 c9 -44 -20 -118 -46 -118 -27 0 -68 45 -68 74 0 14 4 36 10 50 8 23 15 26 54 26 41 0 44 -2 50 -32z m-144 18 c0 -2 -3 -11 -6 -20 -9 -23 -24 -20 -24 4 0 11 7 20 15 20 8 0 15 -2 15 -4z m-1 -90 c25 -40 27 -56 5 -56 -11 0 -14 -6 -9 -20 4 -14 -6 -41 -31 -85 -21 -35 -40 -63 -42 -60 -2 2 1 33 7 68 6 36 9 71 7 78 -2 8 -7 33 -10 57 -6 40 -5 43 13 37 11 -3 22 -1 26 5 9 15 11 13 34 -24z m1281 -385 c7 -13 7 -22 0 -26 -15 -9 -30 4 -30 26 0 25 16 25 30 0z m-1918 -132 c11 -6 63 -10 114 -10 124 2 147 -9 212 -96 88 -118 110 -190 77 -252 -23 -46 -42 -46 -76 2 -17 23 -34 47 -37 53 -4 6 -24 19 -44 29 -51 23 -253 218 -267 255 -11 33 -9 35 21 19z m470 -220 c33 -45 44 -64 31 -56 -6 4 -27 30 -47 60 -26 38 -35 59 -29 73 6 16 8 14 14 -12 3 -17 17 -47 31 -65z m-247 -169 c-38 -57 -62 -111 -90 -200 -22 -67 -41 -117 -43 -112 -6 18 56 220 84 275 41 80 85 141 94 128 4 -7 -16 -46 -45 -91z m-110 -392 c33 -15 32 -32 -1 -24 -35 9 -54 -9 -54 -50 0 -31 3 -34 43 -44 49 -13 87 -30 87 -41 0 -4 -20 -34 -45 -68 -92 -125 -242 -151 -299 -51 l-19 35 34 -32 c79 -75 156 -46 242 90 21 32 17 42 -20 52 -57 14 -64 36 -37 105 17 42 28 47 69 28z m240 -146 c-7 -7 -45 29 -45 41 0 6 11 0 25 -13 14 -13 23 -26 20 -28z"/>
<path d="M6967 6176 c-31 -13 -68 -31 -82 -40 l-24 -16 23 -23 c33 -33 25 -71 -19 -92 l-34 -15 13 -43 c8 -30 20 -46 40 -56 43 -20 55 -2 34 55 -16 44 -16 45 3 28 10 -9 19 -26 19 -36 0 -59 52 -77 96 -33 40 40 54 83 43 137 -12 69 -39 158 -47 158 -4 0 -33 -11 -65 -24z m60 -180 c-4 -9 -11 -16 -17 -16 -11 0 -14 33 -3 43 11 11 26 -10 20 -27z"/>
<path d="M6828 6086 c-24 -17 -23 -43 1 -56 45 -24 66 2 41 51 -12 22 -19 23 -42 5z"/>
<path d="M4755 5049 c-38 -10 -73 -18 -77 -18 -19 -2 -72 -59 -93 -101 -36 -71 -68 -105 -190 -197 -363 -276 -344 -257 -356 -364 -13 -125 -37 -224 -69 -283 -18 -35 -26 -63 -23 -80 8 -40 -13 -57 -65 -54 -42 3 -48 0 -68 -30 -23 -33 -42 -131 -29 -151 9 -16 51 -13 88 5 18 9 75 60 128 114 l96 98 6 83 c8 113 34 233 62 288 26 51 50 76 145 146 36 27 101 83 145 125 44 42 108 95 141 118 67 45 109 92 144 162 13 25 38 69 57 99 19 29 33 54 31 56 -2 1 -34 -6 -73 -16z"/>
<path d="M5145 4945 l-25 -24 0 -588 c0 -323 -3 -598 -6 -610 -4 -15 -34 -38 -83 -67 -82 -47 -95 -58 -105 -93 l-7 -23 255 0 c241 0 256 1 256 18 0 23 -27 48 -117 105 l-73 47 0 609 0 610 -26 20 c-34 27 -40 26 -69 -4z"/>
<path d="M6406 4821 c-15 -17 -17 -38 -12 -193 2 -95 8 -194 11 -221 9 -61 -4 -77 -61 -77 -36 0 -44 -3 -44 -19 0 -15 10 -20 45 -25 l45 -7 0 -91 c0 -51 5 -106 12 -124 8 -23 9 -45 2 -71 -9 -37 -10 -38 -54 -38 -39 0 -45 -3 -48 -22 -3 -19 3 -23 42 -28 l46 -7 0 -83 0 -82 -62 -41 c-75 -48 -108 -78 -108 -97 0 -11 41 -14 228 -17 125 -2 229 -2 232 0 2 2 -2 15 -11 30 -14 25 -67 66 -138 104 l-31 17 0 539 c0 509 -1 540 -18 555 -25 22 -55 21 -76 -2z"/>
<path d="M5274 4521 c-2 -2 -4 -30 -4 -62 0 -58 0 -58 33 -63 17 -3 81 -7 140 -8 l108 -3 11 37 c9 31 8 41 -6 63 -9 14 -24 25 -34 26 -9 0 -68 4 -130 7 -63 4 -116 5 -118 3z"/>
<path d="M5703 4453 c1 -26 -2 -56 -7 -65 -7 -17 1 -18 105 -18 63 0 130 -3 151 -6 33 -6 38 -4 53 25 9 18 13 40 10 50 -13 41 -36 49 -177 56 l-137 7 2 -49z"/>
<path d="M6134 4434 c0 -27 -2 -55 -5 -62 -3 -11 18 -15 94 -19 113 -6 147 7 147 55 0 56 -17 65 -131 70 l-104 4 -1 -48z"/>
<path d="M5293 4373 c-20 -4 -39 -30 -29 -40 3 -3 20 -6 38 -6 29 -2 33 1 33 22 0 26 -8 30 -42 24z"/>
<path d="M5793 4083 l-102 -4 11 -29 c7 -21 7 -39 -1 -60 l-10 -30 150 0 150 0 14 33 c12 28 12 36 -4 62 -19 34 -22 34 -208 28z"/>
<path d="M6134 4030 l-1 -60 96 0 c108 0 141 13 141 56 0 58 -11 64 -128 64 l-107 0 -1 -60z"/>
<path d="M5270 4015 l0 -65 134 0 c143 0 149 2 161 53 5 18 2 35 -9 52 -16 25 -19 25 -151 25 l-135 0 0 -65z"/>
<path d="M5267 3923 c-4 -3 -7 -15 -7 -25 0 -14 8 -18 40 -18 36 0 40 3 40 25 0 22 -4 25 -33 25 -19 0 -37 -3 -40 -7z"/>
</g>
</svg>